<svg width="52" height="52" viewBox="0 0 52 52" fill="none" xmlns="http://www.w3.org/2000/svg">
<path d="M26 3.25C13.4367 3.25 3.25 13.4367 3.25 26C3.25 38.5633 13.4367 48.75 26 48.75C38.5633 48.75 48.75 38.5633 48.75 26C48.75 13.4367 38.5633 3.25 26 3.25ZM34.3992 34.643L31.0477 34.6277L26 28.6102L20.9574 34.6227L17.6008 34.6379C17.3773 34.6379 17.1945 34.4602 17.1945 34.2316C17.1945 34.1352 17.2301 34.0438 17.291 33.9676L23.8977 26.0965L17.291 18.2305C17.2297 18.156 17.1956 18.0629 17.1945 17.9664C17.1945 17.743 17.3773 17.5602 17.6008 17.5602L20.9574 17.5754L26 23.593L31.0426 17.5805L34.3941 17.5652C34.6176 17.5652 34.8004 17.743 34.8004 17.9715C34.8004 18.068 34.7648 18.1594 34.7039 18.2355L28.1074 26.1016L34.709 33.9727C34.7699 34.0488 34.8055 34.1402 34.8055 34.2367C34.8055 34.4602 34.6227 34.643 34.3992 34.643Z" fill="#F24E1E"/>
</svg>
